<?xml version="1.0" encoding="utf-8"?>
<!-- Generator: Adobe Illustrator 15.0.0, SVG Export Plug-In . SVG Version: 6.00 Build 0)  -->
<!DOCTYPE svg PUBLIC "-//W3C//DTD SVG 1.1//EN" "http://www.w3.org/Graphics/SVG/1.1/DTD/svg11.dtd">
<svg version="1.1" id="Layer_1" xmlns="http://www.w3.org/2000/svg" xmlns:xlink="http://www.w3.org/1999/xlink" x="0px" y="0px"
	 width="446.741px" height="50.912px" viewBox="0 0 446.741 50.912" enable-background="new 0 0 446.741 50.912"
	 xml:space="preserve">
<g>
	<g>
		<g>
			<path fill="#FAAF41" d="M23.046,26.358h-4.368c-1.13,0-1.732,0.228-1.732-1.129c0-1.055,0.603-0.903,1.732-0.903h2.711
				c6.252,0,8.209-5.799,8.209-11.522c0-4.144-3.615-10.244-8.887-10.244c-4.669,0-7.08,0.98-7.08,0.98v41.271
				c0,3.39,7.154,3.39,7.154,3.39v1.505H0V48.2c0,0,7.079,0,7.079-3.39V5.725C7.079,2.334,0,2.334,0,2.334V1.205h7.079
				C14.084,1.205,19.732,0,22.519,0c8.585,0,13.782,6.025,13.782,12.727C36.301,21.013,30.275,26.358,23.046,26.358z"/>
			<path fill="#FAAF41" d="M38.559,49.705V48.2c0,0,5.572,0,5.572-3.39V21.84c0-3.389-5.572-3.389-5.572-3.389v-1.129h16.945v1.129
				c0,0-5.574,0-5.574,3.389v22.971c0,3.39,5.574,3.39,5.574,3.39v1.505H38.559z"/>
			<path fill="#FAAF41" d="M77.268,50.837c-9.94,0-17.246-6.026-17.246-17.926c0-11.898,9.037-16.869,17.246-16.869
				c8.888,0,11.9,2.634,11.9,2.634v7.383h-1.356l-1.431-2.862c-1.581-3.089-3.99-4.819-9.037-4.819
				c-5.648,0-10.393,4.443-10.393,14.46S71.318,48.5,77.268,48.5c4.595,0,7.457-1.807,9.566-5.724l1.355-2.56h1.355v7.381
				C89.545,47.598,86.23,50.837,77.268,50.837z"/>
			<path fill="#FAAF41" d="M111.309,50.837c-9.942,0-17.248-6.026-17.248-17.926c0-11.898,9.039-16.869,17.248-16.869
				c8.887,0,11.898,2.634,11.898,2.634v7.383h-1.355l-1.431-2.862c-1.581-3.089-3.991-4.819-9.037-4.819
				c-5.647,0-10.394,4.443-10.394,14.46S105.358,48.5,111.309,48.5c4.594,0,7.456-1.807,9.564-5.724l1.355-2.56h1.355v7.381
				C123.584,47.598,120.27,50.837,111.309,50.837z"/>
			<path fill="#FAAF41" d="M145.349,50.837c-10.846,0-17.247-7.081-17.247-17.55c0-10.467,6.401-17.17,17.247-17.17
				c10.845,0,17.245,6.703,17.245,17.17C162.594,43.756,156.193,50.837,145.349,50.837z M145.349,18.225
				c-7.382,0-9.942,6.402-9.942,14.988c0,8.962,2.561,15.59,9.942,15.59c7.38,0,10.017-6.628,10.017-15.59
				C155.365,24.627,152.729,18.225,145.349,18.225z"/>
			<path fill="#FAAF41" d="M193.17,50.609c0,0-6.4-0.904-11.522-0.904h-14.535V48.2c0,0,5.573,0,5.573-3.39V21.84
				c0-3.389-5.573-3.389-5.573-3.389v-1.129h16.946v1.129c0,0-5.574,0-5.574,3.389v25.08h6.025c3.841,0,5.197-0.227,6.703-3.465
				l1.279-2.561h1.506L193.17,50.609z"/>
			<path fill="#FAAF41" d="M212.751,50.837c-10.845,0-17.248-7.081-17.248-17.55c0-10.467,6.403-17.17,17.248-17.17
				s17.245,6.703,17.245,17.17C229.996,43.756,223.596,50.837,212.751,50.837z M212.751,18.225c-7.382,0-9.942,6.402-9.942,14.988
				c0,8.962,2.561,15.59,9.942,15.59c7.38,0,10.017-6.628,10.017-15.59C222.768,24.627,220.131,18.225,212.751,18.225z"/>
			<path fill="#FAAF41" d="M279.175,10.468l-1.882-3.689c-1.28-2.485-1.582-2.862-4.819-2.862h-7.081v40.895
				c0,3.39,7.081,3.39,7.081,3.39v1.505h-20.712V48.2c0,0,7.079,0,7.079-3.39V3.916h-7.079c-3.239,0-3.539,0.377-4.82,2.862
				l-1.883,3.689h-1.355V0.451c0,0,6.251,0.754,10.394,0.754h16.041c4.144,0,10.395-0.754,10.395-0.754v10.017H279.175z"/>
			<path fill="#FAAF41" d="M305.837,50.609c0,0-6.402-0.904-11.523-0.904h-16.795V48.2c0,0,5.572,0,5.572-3.39V21.84
				c0-3.389-5.572-3.389-5.572-3.389v-1.129h17.17c4.143,0,10.017-0.753,10.017-0.753v9.789h-0.978l-1.884-3.689
				c-1.128-2.26-1.581-2.861-4.819-2.861h-8.134v12.802h6.778c1.507,0,1.657-0.074,2.033-1.58l0.753-3.24h1.657v11.75h-1.657
				l-0.753-3.39c-0.302-1.431-0.526-1.505-2.108-1.505h-6.703v12.501h8.285c3.841,0,5.196-0.226,6.702-3.466l1.28-2.559h1.507
				L305.837,50.609z"/>
			<path fill="#FAAF41" d="M329.257,35.172c-0.602,0.45-3.087,2.258-6.551,2.258c-1.884,0-3.768-0.828-4.369-1.129l-2.409,8.51
				c0,0-0.075,0.451-0.075,0.604c0,2.562,5.271,2.786,5.271,2.786v1.505h-12.955V48.2c0,0,4.219-0.15,5.123-3.39L321.275,18
				l8.66-1.205l8.435,28.016c0.903,3.239,4.971,3.39,4.971,3.39v1.505h-16.042V48.2c0,0,4.821-0.15,4.821-2.862
				c0-0.15-0.075-0.527-0.075-0.527L329.257,35.172z M319.315,32.837c0.678,0.45,2.938,1.656,5.8,1.656
				c1.657,0,3.088-0.753,3.614-1.13l-3.766-12.652h-2.032L319.315,32.837z"/>
			<path fill="#FAAF41" d="M371.657,26.586l-1.882-3.691c-1.28-2.485-1.582-2.861-4.82-2.861h-4.066v24.777
				c0,3.39,5.572,3.39,5.572,3.39v1.505h-16.945V48.2c0,0,5.573,0,5.573-3.39V20.033h-4.067c-3.238,0-3.539,0.376-4.82,2.861
				l-1.882,3.691h-0.979V16.569c0,0,5.874,0.753,10.017,0.753h9.264c4.142,0,10.017-0.753,10.017-0.753v10.017H371.657z"/>
			<path fill="#FAAF41" d="M408.86,49.255c0,0-5.045,1.657-5.799,1.657c-2.41,0-9.716-16.043-9.716-16.043h-6.325v9.941
				c0,3.39,5.648,3.39,5.648,3.39v1.505h-17.021V48.2c0,0,5.574,0,5.574-3.39V21.84c0-3.389-5.574-3.389-5.574-3.389v-1.129h5.574
				c7.003,0,9.94-1.205,12.727-1.205c7.532,0,11.223,3.314,11.223,9.414c0,6.326-6.553,8.059-6.553,8.887
				c0,0.979,1.055,2.259,5.197,8.812c1.581,2.56,5.045,5.122,5.045,5.122V49.255z M392.142,18.676c-3.389,0-5.121,0.98-5.121,0.98
				v13.181h5.497c5.046,0,6.703-3.163,6.703-7.231C399.221,21.238,396.811,18.676,392.142,18.676z"/>
			<path fill="#FAAF41" d="M429.493,50.837c-10.845,0-17.246-7.081-17.246-17.55c0-10.467,6.401-17.17,17.246-17.17
				c10.846,0,17.248,6.703,17.248,17.17C446.741,43.756,440.339,50.837,429.493,50.837z M429.493,18.225
				c-7.38,0-9.94,6.402-9.94,14.988c0,8.962,2.561,15.59,9.94,15.59c7.381,0,10.018-6.628,10.018-15.59
				C439.511,24.627,436.874,18.225,429.493,18.225z"/>
		</g>
	</g>
</g>
</svg>
